<svg width="20" height="20" viewBox="0 0 20 20" fill="none" xmlns="http://www.w3.org/2000/svg">
<g id="key 2">
<path id="Path 6337" d="M5.1498 18.9514C5.0662 18.9507 4.98272 18.945 4.89983 18.9341L3.09439 18.6841C2.65092 18.6074 2.2418 18.3958 1.92266 18.0785C1.60353 17.7611 1.38967 17.3534 1.31043 16.9104L1.06046 15.0845C1.02885 14.7657 1.06472 14.4438 1.16494 14.1395C1.26516 13.8352 1.42755 13.5555 1.64242 13.3178L5.30115 9.66132C5.01021 8.49871 5.02467 7.28052 5.34313 6.12514C5.66391 4.96757 6.28156 3.91402 7.1349 3.06864C7.77775 2.42511 8.54177 1.91516 9.38267 1.56834C10.2236 1.22151 11.1251 1.04467 12.0347 1.04789C12.9442 1.04514 13.8449 1.22203 14.6857 1.56883C15.5265 1.91562 16.2903 2.42549 16.9335 3.06864C17.5783 3.7108 18.0894 4.47446 18.4372 5.31543C18.785 6.15639 18.9625 7.05788 18.9596 7.96793C18.9625 8.87798 18.785 9.77945 18.4372 10.6204C18.0894 11.4614 17.5784 12.2251 16.9335 12.8672C15.6355 14.1659 13.8747 14.8959 12.0386 14.8965C11.4668 14.8963 10.8975 14.8249 10.3435 14.6836L8.49411 16.5279L7.56063 15.4899C7.50259 15.4318 7.43348 15.3859 7.35753 15.3547C7.28158 15.3235 7.20042 15.3076 7.1183 15.3081C7.03618 15.3076 6.95405 15.3235 6.8781 15.3547C6.80215 15.3859 6.73401 15.4318 6.67597 15.4899C6.61861 15.548 6.57283 15.6169 6.5422 15.6925C6.51157 15.7682 6.49648 15.8492 6.49729 15.9308C6.49654 16.0124 6.51157 16.0936 6.5422 16.1693C6.57283 16.245 6.61866 16.3138 6.67597 16.3719L7.60945 17.4104L6.67597 18.3431C6.26186 18.7304 5.71677 18.9475 5.1498 18.9514ZM12.0835 4.94877C11.298 4.9497 10.5445 5.2623 9.98904 5.81781C9.43362 6.37331 9.12177 7.12649 9.12098 7.91203C9.12177 8.69757 9.43362 9.45049 9.98904 10.006C10.5445 10.5615 11.298 10.8741 12.0835 10.875C12.8692 10.8742 13.6224 10.5618 14.178 10.0062C14.7336 9.45074 15.0461 8.6977 15.047 7.91203C15.0462 7.12631 14.7336 6.37285 14.178 5.81732C13.6223 5.26178 12.8692 4.94944 12.0835 4.94877Z" fill="#6E7191"/>
</g>
</svg>
