<svg width="20" height="20" viewBox="0 0 20 20" fill="none" xmlns="http://www.w3.org/2000/svg">
<g id="User 2">
<path id="Path 5555" d="M10.1079 18.6171H9.88911C8.67949 18.6187 7.49915 18.2456 6.51021 17.5491C5.51829 16.856 4.76592 15.8724 4.3564 14.7337C4.18702 14.2405 4.08886 13.7255 4.0649 13.2046V13.1967C4.01877 12.9819 4.01869 12.7598 4.0649 12.5451C4.1111 12.3303 4.20211 12.1278 4.33247 11.9511C4.56999 11.6588 4.90632 11.4633 5.27779 11.4011L6.09322 11.3576H13.9038L14.7192 11.4011C15.0909 11.4626 15.427 11.6582 15.664 11.9511C15.7947 12.1279 15.8865 12.3306 15.9331 12.5454C15.9796 12.7603 15.9798 12.9826 15.934 13.1977V13.2046C15.9104 13.7255 15.8123 14.2405 15.643 14.7337C15.2327 15.8721 14.4805 16.8556 13.4892 17.5496C12.4994 18.2461 11.3182 18.619 10.1079 18.6171ZM9.95161 8.68764C9.47209 8.68909 8.99707 8.59518 8.55415 8.4114C8.11124 8.22762 7.70918 7.9576 7.37154 7.61709C7.03087 7.2792 6.76104 6.87702 6.5771 6.43386C6.39316 5.9907 6.29898 5.51548 6.30025 5.03567C6.29901 4.55563 6.39317 4.08014 6.5771 3.63674C6.76104 3.19334 7.03087 2.79086 7.37154 2.45266C7.70918 2.11222 8.11122 1.84233 8.55415 1.65871C8.99709 1.4751 9.47214 1.38136 9.95161 1.38308C10.4315 1.38163 10.9072 1.4755 11.3505 1.65908C11.7939 1.84266 12.1962 2.1124 12.5346 2.45266C12.8746 2.79129 13.144 3.1939 13.3276 3.63723C13.5112 4.08056 13.605 4.55584 13.604 5.03567C13.605 5.51527 13.5112 5.99029 13.3276 6.43337C13.144 6.87646 12.8745 7.27875 12.5346 7.61709C12.1965 7.9572 11.7945 8.22697 11.3515 8.41079C10.9085 8.59461 10.4332 8.6889 9.95357 8.68813L9.95161 8.68764Z" fill="#6E7191"/>
</g>
</svg>
